# xmcd CD database file
#
# Track frame offsets:
#	150
#	15120
#	30661
#	51712
#	69052
#	86169
#	101395
#	120703
#	139778
#	154137
#	168479
#
# Disc length: 2472 seconds
#
# Revision: 0
# Processed by: cddbd v1.5.2PL0 Copyright (c) Steve Scherf et al.
# Submitted via: CDex 1.51
#
DISCID=8709a60b
DTITLE=Girls Guns and Glory - Inverted Valentine
DYEAR=2008
DGENRE=Country
TTITLE0=Six Sixty Seven
TTITLE1=Only One Thing
TTITLE2=Inverted Valentine
TTITLE3=Ramblin' Ole Daddy
TTITLE4=Temptation
TTITLE5=Keep On Calling
TTITLE6=Suzie
TTITLE7=Baby You're a Dog
TTITLE8=Keep Your Distance
TTITLE9=Working All The Time
TTITLE10=Unrequited Love
EXTD=YEAR: 2008
EXTT0=
EXTT1=
EXTT2=
EXTT3=
EXTT4=
EXTT5=
EXTT6=
EXTT7=
EXTT8=
EXTT9=
EXTT10=
PLAYORDER=
